<svg id="Layer_1" data-name="Layer 1" xmlns="http://www.w3.org/2000/svg" viewBox="0 0 400 400">
  <defs>
    <style>
      .cls-1 {
        fill: none;
        stroke: #000;
        stroke-miterlimit: 10;
        stroke-width: 0.75px;
      }
    </style>
  </defs>
  <title>Artboard 2</title>
  <path d="M366.89,129.21c22.27,47.85,23.23,104,1.76,152.29A182.18,182.18,0,0,1,273.19,375a183.27,183.27,0,0,1-241-235.86,186.59,186.59,0,0,1,9.4-20.24c1.24-2.3-2-1.49-2.72-.11C13.16,166.55,9.14,224.22,29,274.84a184.84,184.84,0,0,0,230,107.92A188.57,188.57,0,0,0,362.9,298.28a186.6,186.6,0,0,0,15.85-149.51,191,191,0,0,0-8.54-21.61c-.71-1.51-3.88.83-3.32,2.05Z"/>
  <g>
    <path d="M54.55,95c.61-.65,1.05-1.51,1.66-2.16l.14-.15c1.15-1.24,1.65-2.27.8-3.06s-1.5-1.29-2.22-2c-.54-.5-1-1.06-1.55-1.56l-.72-.67c-1.23-1.14-2.29-2.52-3.58-3.72-2.17-2-4.28-4-6.44-6.06l-.16-.15c-1.22-1.14.79-2.86,2.08-4.25s9.28,6.55,9.65,6.85c4.71,4.39,9.46,8.87,13.55,13.18.35.38.69.7,1.07,1.05l1.1,1c.81.76,1.58,1.58,2.39,2.34L74,97.32c2.29,2.14,2.52,2.08-.21,5.83-.55.59-.73.59-1.68,0l-5.44-4.74c-.51-.47-1-1-1.49-1.44-1.25-1.17-2.09-2.34-3.45-.9s-3.4,3.35-2.21,4.46c.22.2.43.35.65.56l.88.82c1.07,1,2.34,1.84,3.4,2.83s2.45,1.85,1.65,3-1.21,2.68-2.07,3.6-4.08-2.48-4.59-2.95c-1.69-1.58-3.13-3.31-4.83-4.9-.85-.79-1.81-1.58-2.69-2.4-.5-.47-.95-1-1.45-1.46s-.85-.73-1.26-1.11c-1.13-1.06-2.23-2.14-3.36-3.2l-2-1.9C41.5,91.26,34.4,85.53,35.1,84a7.11,7.11,0,0,1,1.29-1.89c.74-.79,1.4-1.56,2.16-.86s1.67,1.23,2.39,1.9,1.05,1.2,1.62,1.73c3.2,3,6.52,5.92,9.72,8.9.35.33.7.71,1,1a5.91,5.91,0,0,0,.63.53A.79.79,0,0,0,54.55,95Z"/>
    <path d="M86.5,67.59c3,3.29,7.71,8.28,7.65,11.1,0,3-2.12,5.34-4.05,7.07-4.72,4.23-9,1.4-13.16-3.24-.49-.55-.85-1.21-1.34-1.76-.89-1-2-1.94-3-3-.84-.94-1.61-1.94-2.42-2.86-.59-.65-1.22-1.25-1.81-1.9-3.18-3.55-7.82-8.36-4.84-12.54a16.94,16.94,0,0,1,2.52-2.69c2.45-2.19,5.51-4.13,9-1.42a105.78,105.78,0,0,1,10.26,10ZM87,81.9c3.49-3.13.54-5.27-3.29-9.7-.09-.1-.19-.16-.26-.23-2.25-2.73-4.64-5.39-7-8-.51-.57-1.1-1.08-1.62-1.65-.21-.24-.41-.57-.65-.83-1.38-1.54-3.13-2.92-5-1.29-3,2.67-.17,5,5.16,10.94.58.66,1.32,1.17,1.91,1.82,1.35,1.51,2.38,3.55,3.62,4.93.37.42.77.76,1.13,1.15s.64.88,1,1.27C83.4,81.8,85.37,83.37,87,81.9Z"/>
    <path d="M98.85,55.14c-1.58-2.23-2.79-4.59-4.35-6.79-1-1.43-2.39-3.67-3.49-4.43a2.19,2.19,0,0,1-.47-.49c-.38-.54-.91-1.41-.17-1.93,1.2-.85,3.44-3,4.09-2,1.21,1.58,2.43,2.94,3.47,4.4.44.63.84,1.25,1.26,1.85s.84,1.12,1.25,1.69c1.7,2.4,3.08,5.19,4.64,7.39.25.34.6.61.83.92s.51,1,.81,1.4c1.4,2,3,3.93,4.66,6,.5.71.77.73,1.29.37.91-.65,1.79-1.36,2.7-2s2.48,1.62,3.33,2.82c.32.63.42,1-.12,1.34s-1,.55-1.51.89a1.69,1.69,0,0,1-.32.28c-.74.52-1.57.81-2.28,1.32-.29.2-.58.45-.9.67-3.25,1.41-1,3.87-9.4-6.59-.77-1.08-1.73-2.08-2.5-3.16l-1.94-2.74C99.44,55.92,99.13,55.54,98.85,55.14Z"/>
    <path d="M137.63,36.92a125.4,125.4,0,0,1,6.49,13.69c.23.62.18,1-.34,1.25-1.65.92-2.65,1.87-3.58.18-.36-.64-.64-1.36-1-2-.71-1.06-1.36-2.15-2-3.27l-.9-1.61-.58-1.05c-.55-1-1-2-1.56-3-.47-.84-.75-1.13-1.3-.82-2,1.11-4.58,2.28-3.88,3.53,1.78,3,3.48,6,5.39,8.83.41.52,1,.86,1.32,1.43.69,1.25.65,1.67-.36,2.23-1.47.82-3.45,2.1-4.1.91-.85-1.51-1.81-3-2.64-4.44-.49-.88-.82-1.84-1.31-2.72s-1.09-1.82-1.6-2.73c-1.36-2.6-2.82-5.23-4.21-7.86-.39-.7-.8-1.36-1.19-2.07s-.8-1.72-1.25-2.53c-.22-.4-.51-.77-.73-1.18-2.2-3.94-5.1-9.08.16-12,4.62-2.57,9.37-2.39,12.84,3.85,1.16,2.09,2.34,4.13,3.42,6.22C135.7,33.53,136.69,35.23,137.63,36.92ZM122.28,24.8c-3.16,1.75-1.62,4.29,1.23,9.42.21.37.51.77.78,1.24s.56,1.24.86,1.78.63.48,1,.26c.76-.42,1.5-1,2.3-1.41.49-.27,1-.49,1.39-.73,1.26-.7-.33-2.55-1-3.83-.4-.79-.79-1.64-1.15-2.36C126.32,26.74,124.75,23.42,122.28,24.8Z"/>
    <path d="M235.94,24.35c1.27-2.86,2.13-6,3.29-8.91.2-.51.41-.74.8-.67,1.21.31,2.58.69,3.67.9.91.17,1.9.2,2.81.37,1.55.3.22,8.51.15,9.56a99.37,99.37,0,0,1-1.75,11.7c-.65,3.41-1.42,6.75-2.06,10.12-.34,1.78-.58,3.62-.93,5.43-.19,1-.48,2.18-1.45,2-.77-.15-1.46-.75-2.33-.91-.68-.13-1.14-.38-.89-1.66.48-3.4,1-7,1.61-10.24.28-1.48.66-3,.95-4.45.15-.8.23-1.6.39-2.43l.41-2.16c.38-2,1.28-6.58.81-7.42-1.16,1.35-2,4.53-2.52,5.68-1.19,2.56-2.56,8.53-4.24,8.41a42.17,42.17,0,0,1-5.38-.87c-.56-.26-.12-3.59-.09-5.35a73.87,73.87,0,0,0-.62-12.39,1.51,1.51,0,0,0-.17-.34,4.87,4.87,0,0,0-.54,1.78c-.36,1.89-.57,4.08-.92,5.9-.69,3.63-1.64,7.22-2.32,10.81-.17.87-.24,1.76-.4,2.63s-.49,2.06-.69,3.09-.37,2.28-.51,3.39c-.14.72-.36,1.38-1.17,1.23-1.1-.21-2.13.14-3.23-.07s-.31-2.57-.08-3.78c.52-2.76,1.39-5.38,1.91-8.14l.16-.84c.14-.71.3-1.39.43-2.07.39-2,.45-3.8.82-5.73l.08-.45c.44-2.27.76-4.87,1.22-7.3.79-4.12,1.18-8.67,3.7-8.55a31.2,31.2,0,0,1,3.74.4c1.42.27,1.74.17,1.83,3.76.17,4,.55,8.18,1.11,12.09a.87.87,0,0,0,.28.6C234.54,29.22,235.54,25.21,235.94,24.35Z"/>
    <path d="M259.62,40.14c1.07-2.3,2.28-4.5,3.35-6.8a6.88,6.88,0,0,1,.32-.74c2.48-5.34,5.38-11,11.37-8.2,2.29,1.07,4.13,3,6.53,4.1l.76.35c1.2.56,1.22,1.12-.27,4.33-.22.4-.47.41-.75.28-.72-.33-1.27-.88-2-1.24s-1.14-.35-1.54.52c-.49,1-.88,2.09-1.37,3.14-.66,1.42-1.35,2.84-2,4.31-.89,1.91-1.5,2,2.15,3.71.53.25.51.49.15,1.26-1.78,3.37-1.24,4-5.5,2.7-1-.16-4.06,7.4-4.77,8.93-.57,1.22.46,1.41,1.1,1.7a22.34,22.34,0,0,1,2.61.79c.69.32,0,1.52-.67,2.91a9.27,9.27,0,0,0-.44.82,3.71,3.71,0,0,0-.21.58c-.39.83-.82,1.1-1.36.85-.74-.34-1.49-.73-2.22-1.08l-.49-.22-.71-.34c-1.15-.53-2.61-.66-3.71-1.17-.76-.35.37-2.58,1-3.91.92-2,2.18-4.16,3-6l.19-.42c.68-1.47,1.53-2.89,2.23-4.39.26-.77-2.11-1.75-3.08-2.2-.71-.33-.86,0-1.29.93-.64,1.36-1.19,2.75-1.86,4-.44.9-.92,1.78-1.34,2.69-.82,1.82-1.61,3.66-2.45,5.47-.45,1-.82,1.49-1.39,1.26-.75-.26-1.48-.56-2.23-.82-1.07-.5.3-2.7,1.28-5.68,1-2.06,1.73-4.33,2.67-6.35.28-.59,2.08-4.46,2.21-4.4C259.13,41.27,259.37,40.7,259.62,40.14Zm14.49-9.29c.16-.4.07-.61-.29-.78-2.28-.89-3.56-2.41-6.3,3.48-.85,1.64-1.64,3.26-2.43,5-.26.56-.16.74.23.91,2,.92,4,1.07,4.38.3,1.27-2.72,2.63-5.39,4-8.13A3.73,3.73,0,0,0,274.11,30.85Z"/>
    <path d="M285.14,65.87c-1.53,1.43-4.28,4.16-5.08,3.65-1.3-.83-2.33-1.66-1.69-2.66a22.84,22.84,0,0,1,3.41-3.4c3.21-3.58,7.08-6.1,9.67-8.21a18.35,18.35,0,0,0,2.39-1.87c.68-1.07,1.89-6,2.18-7,1-3,1.93-6,2.89-9a6.54,6.54,0,0,1,.52-1.49c.32-.51,2.5.47,3.13.87,1.74,1.11-3.62,12-2.79,12.5.58.37,5.64-4.16,5.77-4.3,1.25-1.29,3.74-3.74,4.54-3.22s1.49.9,2.23,1.37a.76.76,0,0,1,.33,1.07A13.23,13.23,0,0,1,310,46.76c-4.14,3.26-8.16,6.4-12,9.37a1.93,1.93,0,0,0-.48.51c-.86,1.36-1.17,4.29-1.62,5.77-.86,2.76-1.75,5.32-2.78,7.84-.74,1.84-1.07,4.66-2.05,6.21-.54.84-3.53-.93-4.33-1.44s1-5.51,1.39-6.64c.77-2.41,2.24-5,2.67-7.41C289.69,60.93,286.63,64.51,285.14,65.87Z"/>
    <path d="M303.84,76.45c.85-1,2-2,2.8-3,.42-.5.78-1.11,1.21-1.64.8-1,1.79-1.88,2.59-2.86.43-.54.86-1.18,1.3-1.72,1.51-1.85,3.06-3.61,4.57-5.46,1.26-1.55,2.31-3.28,3.55-4.8,1.57-1.94,3.1-4.42,4.68-3.14.61.49,1.24,1,1.87,1.47.81.66-.38,1.92-1.14,2.84-.19.24-.44.44-.63.68-.61.74-1.13,1.61-1.74,2.35-.75.93-1.58,1.79-2.31,2.69s-1.31,1.66-1.94,2.44c-.85,1-1.88,1.94-2.65,3-3.16,3.88-6.13,7.86-8.68,11.65-.69,1-1.54,2-2.32,3-1.31,1.61-3.32-.22-4.05-.71a8.74,8.74,0,0,1-.71-.53c-.87-.81,1.22-3.22,2.24-4.48l.29-.36C303.16,77.34,303.48,76.9,303.84,76.45Z"/>
    <path d="M332.73,78.32c-1.12,1.07-1.92,2.58-3.13,3.73-1.9,1.82-3.93,3.39-5.81,5.18-1.4,1.34-3.19,3.32-1.67,5,1.32,1.38,3,2.33,4.76.61,1-.93,1.71-2.47,2.77-3.48.65-.62,1.23-.12,2.23.93.82.85,2.22,2.09,1.34,3.14a36.39,36.39,0,0,1-3.09,3.38c-2.49,2.38-6.48,4-9.26,1.51-.63-.66-1.54-1.16-2.22-1.88-3.69-3.86-6.33-6.4,2.8-15.12a9.32,9.32,0,0,0,.75-.66c.47-.46.95-1,1.43-1.42s1.11-.91,1.59-1.42c2.49-2.54,4.71-4.92,7.12-7.22,3-2.86,8.59-9,13.81-3.59a28.86,28.86,0,0,1,3.23,4.45c.74.77,1.14,3.49.93,4.44-.68,2.54-3.95,5.56-5.57,7.11s-3.14-.64-4.37-1.94c-.66-.8-.08-1.19.79-2a8.17,8.17,0,0,0,.7-.62c1.93-1.84,4-3.77,1.84-6-2.4-2.51-3.39-1-6.69,1.91l0,0C335.61,75.73,333.91,77.2,332.73,78.32Z"/>
    <path d="M353.73,111.38c-1.76,1.26-3.45,2.68-5.21,3.93-2.63,1.88-5.46,4.32-8.27,2.71a13.09,13.09,0,0,1-4.75-4.22c-3.33-4.67-.65-7.27,6.51-13.36a29.63,29.63,0,0,1,2.92-2.69c1.73-1.23,3.63-2.37,5.36-3.6,1-.72,2-1.45,2.94-2.23,3.93-2.8,8.34-6.33,12.46-.54l.09.11c.59.83,1.34,1.58,1.93,2.41,3.37,4.73-1.35,8.13-8.49,13.7l0,0C357.38,108.87,355.55,110.09,353.73,111.38Zm-3.62-3.48c3.56-2.71,7.08-5.47,10.57-8.22,1.3-1.1,3.27-2.8,2.25-4.23-2.25-3.16-3.76-.88-5.95.33-.67.4-1.29.75-1.93,1.2a62.94,62.94,0,0,0-7,5.46l-.18.12c-.52.37-1.12.5-1.67.89-2.77,2-7.73,4.61-5.93,7.15,1.53,2.14,3.18,2.2,5.38.64,1.53-1.09,3-2.25,4.48-3.37Z"/>
  </g>
  <path d="M174.11,347.6a82.31,82.31,0,0,0,5.3-30.39c-.08-5.43-.37-10.87-.58-16.31s-.11-10.77-1.5-16a5.82,5.82,0,0,0-1.94-.49c-13.12,3-27.45,4.83-38.65-4.25-7.13-5.78-12-14.07-14.49-22.82-2.58-9-3.18-20,1.21-28.57a17.68,17.68,0,0,1,10.6-9.2c6.34-1.84,11.28,1.72,13.75,7.39,4.31,9.89.62,21.65,6.7,31A15.57,15.57,0,0,0,167,265c11.1.29,11.55-13,11.63-21,.14-12.83.2-25.67.06-38.5s-.5-25.89-1-38.82-2-25.84-2-38.72c0-10.37,3.28-20.68,12.88-26,5.5-3,11.91-3.46,18.07-3.19,7.25.32,15.4,1.13,20.89,6.36,7.74,7.37,7,19.57,7.06,29.37q.12,19.23-.44,38.46-.28,9.87-.76,19.71c-.13,2.63-.26,5.26-.41,7.88-.13,2.36-1.12,6.58.77,8.6,2.74,2.94,9,1.18,11.58-.36,5-3,7.78-8.46,8.73-14.11a39.71,39.71,0,0,0,.31-9.18c-.17-2.74-.71-5.76,1-8.16,4.2-5.91,10.42-.27,12.51,4.31A40.29,40.29,0,0,1,271,198.29c-.08,24.31-19.61,44.87-44.32,43.89h0l1.09,55.75c.36,18.07,1.35,36.27.41,54.33,0,.17,2,.4,1.94.48.84-16.08,0-32.26-.29-48.36l-.94-47.78-.11-6c0-1.51-.64-4.58-.12-6,1.16-3.1,4.81-1.92,7.46-2.27A42.32,42.32,0,0,0,253,236.15a43.69,43.69,0,0,0,19.41-30.34c1.42-9.23,1.05-27.27-9.95-30.79a14.22,14.22,0,0,0-3.07-.64c-8.61-.56-6.87,8.4-6.85,14,0,5.88-1.26,12.09-5.23,16.62a14.71,14.71,0,0,1-7.26,4.79c-5.83,1.36-5.49-2.54-5.28-6.76.82-15.77,1.45-31.53,1.66-47.31q.15-11.83,0-23.68c-.06-6.31,0-12.89-2.23-18.9-3.06-8.34-10.37-11.92-18.51-13.58-11.14-2.29-25.11-2.89-33.92,5.46-10.77,10.2-8,26-7.2,39.29,1.91,32.39,2.39,64.8,2.1,97.24-.05,5.41.3,11.32-1.92,16.38-3.52,8-12.92,8.13-17.92,1.16-7.69-10.73-.84-26.66-10.18-36.43-5.45-5.69-15-5.12-20.72-.21-10.23,8.83-8.73,26.39-4.56,37.83,4.08,11.2,12.38,21.46,24,25.17,10.47,3.35,21.37,1.87,31.89-.55l-1.94-.49c1.3,4.9,1.27,10,1.47,15,.22,5.76.52,11.53.61,17.3a82.19,82.19,0,0,1-5.31,30.39,14.23,14.23,0,0,0,2,.48Z"/>
  <path d="M171.07,161a4.18,4.18,0,0,0,.28,1.48,8.44,8.44,0,0,0,2.58,3.15c.7.63,1.63,1.3,2.51.94"/>
  <path d="M172.51,181.26a27.3,27.3,0,0,0,3.16,4.18,3.15,3.15,0,0,0,1.65,1.12"/>
  <path d="M171.94,197.51a6.69,6.69,0,0,0,6.39,2.44"/>
  <path d="M171,210.24l-1.48,0c.7,1.66,2.64,2.39,4.41,2.71a19.79,19.79,0,0,0,3.68.29"/>
  <path d="M171.31,225.1a9.28,9.28,0,0,1,1.45.79l3.09,1.94a3.7,3.7,0,0,1,1-.89"/>
  <path d="M175.16,149.46a5.66,5.66,0,0,1-5.47-5.46"/>
  <path d="M174,130.31a1.65,1.65,0,0,1-1.51-.37,4.59,4.59,0,0,1-1-1.28c-.72-1.22-1.39-2.48-2-3.76a3.87,3.87,0,0,1-.54-2.18"/>
  <path d="M176.86,113.31a5,5,0,0,1-2.5-3,13.59,13.59,0,0,1-1-5.16"/>
  <path d="M189.66,101.74q.08-2.94,0-5.9"/>
  <path d="M201.42,99.3a45.28,45.28,0,0,0,.16-6.69.88.88,0,0,0-.24-.69"/>
  <path d="M212.5,100A13.39,13.39,0,0,1,215.37,93"/>
  <path d="M222.53,102.17a2.9,2.9,0,0,1,.38-2.56,8.63,8.63,0,0,1,1.85-1.92"/>
  <path d="M230.07,107.4a3.75,3.75,0,0,0,2.68-4.5"/>
  <path d="M235.12,118.63a7.83,7.83,0,0,0,4.94-5.22"/>
  <path d="M235.39,133a7.21,7.21,0,0,0,4.3-.38,5.79,5.79,0,0,0,1.84-1.78,13.75,13.75,0,0,0,2.24-5.23"/>
  <path d="M235.66,147.9a1.54,1.54,0,0,0,1.11-.48,13.51,13.51,0,0,0,2.26-2.21,4.46,4.46,0,0,0,1-2.94"/>
  <path d="M235.37,157.61a5.4,5.4,0,0,0,4.48-4.85"/>
  <path d="M235.24,171.41a4.69,4.69,0,0,0,2.87-2.24,13.93,13.93,0,0,0,1.34-3.49"/>
  <path d="M234.83,186.6a5.18,5.18,0,0,0,6-3"/>
  <path d="M234.53,204.29a5.36,5.36,0,0,0,1.82-.87l3.24-2.09a1.49,1.49,0,0,0,.58-.53c.29-.54-.1-1.26.21-1.78"/>
  <path d="M195.85,118.81a6.84,6.84,0,0,1-5-4.21,12.61,12.61,0,0,1-.57-6.73"/>
  <path d="M205,130.09a7.07,7.07,0,0,0,4.47-4.18,16,16,0,0,0,1.05-6.21"/>
  <path d="M223.3,121.62a2,2,0,0,0,1.28-.73,9.41,9.41,0,0,0,2.43-5,16.54,16.54,0,0,0-.07-5.57"/>
  <path d="M192.48,151.45a10.25,10.25,0,0,1-4.83-6.45"/>
  <path d="M209.37,160.65a5.15,5.15,0,0,1-3.66-3.19,11.53,11.53,0,0,1-.64-5"/>
  <path d="M220.43,144.59A4.08,4.08,0,0,0,225,140"/>
  <path d="M189.24,179a5.49,5.49,0,0,1-3.57-.45,3.48,3.48,0,0,1-1.89-2.94"/>
  <path d="M199.17,202.41a7.61,7.61,0,0,1-8.13-7.82"/>
  <path d="M207.07,182.51a6.76,6.76,0,0,0,3.92-5.16"/>
  <path d="M223.21,194.92a13.3,13.3,0,0,0,2.53-5.63l.75-2.78"/>
  <path d="M197.46,239.21a8,8,0,0,1-5.68-3.53,22.73,22.73,0,0,1-2.83-6.29"/>
  <path d="M212.94,223.16l1.37-8.15"/>
  <path d="M253.37,178.36a6.22,6.22,0,0,1-3.35-5.83"/>
  <path d="M261.73,175.37a18.24,18.24,0,0,0,1.37-5.25"/>
  <path d="M270.26,190.37a3.91,3.91,0,0,0,4.25-3.86"/>
  <path d="M270.05,208.86c.77.4,1.64-.25,2.24-.86,1.89-1.91,3.77-4.12,4-6.8"/>
  <path d="M266.35,222.43a5.54,5.54,0,0,0,2.85,1.91,3.27,3.27,0,0,0,3.19-.88"/>
  <path d="M255.37,235a11.07,11.07,0,0,0,4.25,1.51,3.75,3.75,0,0,0,3.75-2"/>
  <path d="M242.73,241.69a4.64,4.64,0,0,0,4.16,4.28"/>
  <path d="M250.75,200.25c-1,.27-1.83-.9-2.14-1.91a13.12,13.12,0,0,1-.48-5.57"/>
  <path d="M259.6,210.71a6,6,0,0,0,5.33-2.67,11.64,11.64,0,0,0,1.86-5.89"/>
  <path d="M247.41,219.76a19.47,19.47,0,0,1,1-8.4l.68-.05"/>
  <path d="M239.67,228.43a5.47,5.47,0,0,0,5,1.14"/>
  <path d="M127.43,224a10.63,10.63,0,0,1-1.45-9.34"/>
  <path d="M119,237a5.25,5.25,0,0,1-1.47-5.43"/>
  <path d="M115,248.23a6.31,6.31,0,0,0,5.88,4.32"/>
  <path d="M138.29,219.61a5.14,5.14,0,0,0,2.35-5.22"/>
  <path d="M144.85,222.54a5.84,5.84,0,0,0,2.85-.14,3,3,0,0,0,2-1.94"/>
  <path d="M150.58,233.4a3.26,3.26,0,0,0,3.13.18"/>
  <path d="M154.19,256.18c.66.26,1.35-.3,1.81-.84a14.78,14.78,0,0,0,3.26-7"/>
  <path d="M162.6,263.87a1.78,1.78,0,0,0,1.25-.74,10.69,10.69,0,0,0,2.55-5.57"/>
  <path d="M177.22,243.74c-1.29-.25-2.77.4-3.86-.33a3.59,3.59,0,0,1-1.16-2.6"/>
  <path d="M161.59,264.48c1.52-.16,2.59-1.54,3.46-2.8"/>
  <path d="M117.05,261.09a13.85,13.85,0,0,0,4,2.5,2.9,2.9,0,0,0,2.47.36"/>
  <path d="M125,273.17c-.06.4.32.71.67.91a7.43,7.43,0,0,0,4.85.81"/>
  <path d="M132.77,280.87a5.78,5.78,0,0,0,8.3,1.7"/>
  <path d="M164.82,286.69a5.62,5.62,0,0,1-.26,3,4.08,4.08,0,0,1-1.34,1.46,7.7,7.7,0,0,1-4.55,1.42"/>
  <path d="M150,285.89c-.26,1.76.42,3.67-.32,5.29a9.41,9.41,0,0,1-1,1.56c-.52.74-1,1.62-1.9,1.83"/>
  <path d="M129.53,242.28c-.23-.8-1-1.31-1.51-2a6.59,6.59,0,0,1-.83-4.14,3.79,3.79,0,0,1,.34-1.77"/>
  <path d="M140,234.44c1.21-1.72,1.08-4,.91-6.09a2.34,2.34,0,0,0-.48-1.49"/>
  <path d="M142,257.75c.45-1.26,1.17-2.4,1.61-3.66a8.67,8.67,0,0,0,.25-4.76"/>
  <path d="M131.33,265.3A7.73,7.73,0,0,0,139,273"/>
  <path d="M153.57,274.94a7,7,0,0,0,.67-3.32,5.69,5.69,0,0,0-.24-2.09,2.3,2.3,0,0,0-1.4-1.48"/>
  <path d="M167.22,281.89a28.42,28.42,0,0,0,7.65-.32"/>
  <path d="M181.66,260.93a32.2,32.2,0,0,0,.91-10.53"/>
  <path d="M207.28,256.51c1.15.33,2.25-.62,3-1.55a20.39,20.39,0,0,0,4.37-11.1"/>
  <path d="M214.62,290.83a8.34,8.34,0,0,0,3-3.75,17.19,17.19,0,0,0,1.55-9"/>
  <path d="M202.83,299.08A12.53,12.53,0,0,1,192.59,296a5.39,5.39,0,0,1-2-3.45"/>
  <path d="M176.61,331.52c-1.55.1-2.9-1.1-3.72-2.42a9.88,9.88,0,0,1-1.41-6.54"/>
  <path d="M177.25,306a2.68,2.68,0,0,1-3.05-.15,2.65,2.65,0,0,1-.8-2.94"/>
  <path d="M229.33,295a15.14,15.14,0,0,0,1.48-.5,5,5,0,0,0,2.42-2,3.2,3.2,0,0,0,.14-3.07"/>
  <path d="M228.45,279.07a16.8,16.8,0,0,0,4.72-7.78"/>
  <path d="M227.43,260.66c1.55.2,3.24.35,4.54-.5,1.59-1,2-3.14,2.27-5"/>
  <path d="M228.87,314.66a5.32,5.32,0,0,0,3,0,4.51,4.51,0,0,0,1.75-1.44,16.48,16.48,0,0,0,2.68-4.65"/>
  <path d="M229.78,328.44a4.14,4.14,0,0,0,4-2.59"/>
  <path d="M228.82,345.24a3.77,3.77,0,0,0,4-1.67,8.92,8.92,0,0,0,1.29-4.39"/>
  <path d="M209.37,337.78a3.88,3.88,0,0,0,3.29-2.63,10.73,10.73,0,0,0,.44-4.41"/>
  <path d="M191,343a12,12,0,0,1-2.64-8.06"/>
  <path d="M202.07,324.06a10.38,10.38,0,0,0,1.1-8"/>
  <path d="M189.25,314.08a2,2,0,0,1-2-1.06,5.83,5.83,0,0,1-.58-2.3l-.51-4.56"/>
  <path d="M200,277.39a4.8,4.8,0,0,1-5.09-5.88"/>
  <path class="cls-1" d="M256.26,190.37a3.91,3.91,0,0,0,4.25-3.86"/>
  <path class="cls-1" d="M252.35,222.43a5.54,5.54,0,0,0,2.85,1.91,3.27,3.27,0,0,0,3.19-.88"/>
</svg>
